<?xml version="1.0" encoding="UTF-8"?>
<svg version="1.1" xmlns="http://www.w3.org/2000/svg" width="112" height="112">
<path d="M0 0 C0.495 1.98 0.495 1.98 1 4 C4.465 3.505 4.465 3.505 8 3 C7.77183594 3.86882813 7.54367188 4.73765625 7.30859375 5.6328125 C6.87740234 7.36144531 6.87740234 7.36144531 6.4375 9.125 C6.14746094 10.26195312 5.85742188 11.39890625 5.55859375 12.5703125 C4.97950806 16.12581766 5.20392173 18.51241901 6 22 C6.26490234 23.23363281 6.26490234 23.23363281 6.53515625 24.4921875 C6.79619141 25.67167969 6.79619141 25.67167969 7.0625 26.875 C7.8257617 30.61331094 8.0551416 34.01542127 7.9453125 37.84375 C8.0574094 42.26357077 8.78993029 46.7498169 10 51 C10.66 51.33 11.32 51.66 12 52 C12 71.47 12 90.94 12 111 C-24.96 111 -61.92 111 -100 111 C-100.04125 99.2025 -100.0825 87.405 -100.125 75.25 C-100.14320801 71.54813477 -100.16141602 67.84626953 -100.18017578 64.03222656 C-100.18920898 59.45263672 -100.18920898 59.45263672 -100.19088745 57.29730225 C-100.19392475 55.81698396 -100.20088702 54.33667009 -100.21115112 52.85638428 C-100.36445973 29.5466896 -100.36445973 29.5466896 -96 23 C-95.34 23 -94.68 23 -94 23 C-94.11406002 20.13863704 -94.11406002 20.13863704 -95 17 C-96.64295195 15.63755204 -98.30824337 14.30135125 -100 13 C-100 11.68 -100 10.36 -100 9 C-97.36 8.34 -94.72 7.68 -92 7 C-91.67 5.35 -91.34 3.7 -91 2 C-90.05125 2.20625 -89.1025 2.4125 -88.125 2.625 C-87.09375 2.74875 -86.0625 2.8725 -85 3 C-84.34 2.34 -83.68 1.68 -83 1 C-81.85110867 4.93905597 -81.47417305 8.93565958 -81 13 C-80.0409375 13.1546875 -80.0409375 13.1546875 -79.0625 13.3125 C-78.381875 13.539375 -77.70125 13.76625 -77 14 C-76.67 14.99 -76.34 15.98 -76 17 C-77.134375 17.4125 -78.26875 17.825 -79.4375 18.25 C-83.07679495 19.55565267 -83.07679495 19.55565267 -83.875 22.0625 C-83.91625 22.701875 -83.9575 23.34125 -84 24 C-84.33 24.66 -84.66 25.32 -85 26 C-85.23422401 29.66579172 -85.39360638 33.32532072 -85.51757812 36.99609375 C-85.74877177 42.25683976 -86.56698393 46.92932775 -88 52 C-76.04000336 48.83423128 -76.04000336 48.83423128 -67.3125 41.0625 C-66.879375 40.051875 -66.44625 39.04125 -66 38 C-62.88547688 34.68503728 -59.68733125 31.45086852 -55 31 C-51.87511003 31.88312108 -48.90953652 33.03437612 -45.875 34.1875 C-42.93052323 35.01963474 -41.77461929 35.14811833 -39 34 C-38.01 33.34 -37.02 32.68 -36 32 C-30.12706773 31.01327148 -25.25049423 31.25813265 -20.3125 34.75 C-18.36328125 36.296875 -18.36328125 36.296875 -17 38 C-17 39.32 -17 40.64 -17 42 C-13.04 42.33 -9.08 42.66 -5 43 C-5.20625 41.88625 -5.4125 40.7725 -5.625 39.625 C-5.74875 38.42875 -5.8725 37.2325 -6 36 C-5.01 35.01 -5.01 35.01 -4 34 C-4.19471111 32.05000871 -4.19471111 32.05000871 -5 30 C-5.309375 28.9790625 -5.309375 28.9790625 -5.625 27.9375 C-7.00334629 25.63842059 -7.00334629 25.63842059 -10.5 24.5 C-14 23 -14 23 -15.4375 20.8125 C-15.623125 20.214375 -15.80875 19.61625 -16 19 C-13.69 18.67 -11.38 18.34 -9 18 C-8.67 15.03 -8.34 12.06 -8 9 C-7.236875 8.814375 -6.47375 8.62875 -5.6875 8.4375 C-1.81384272 6.36554378 -1.43454737 4.07713462 0 0 Z " fill="#781214" transform="translate(100,1)"/>
<path d="M0 0 C2.49505962 2.49505962 2.35948376 3.67328888 2.625 7.125 C2.69976563 8.03507813 2.77453125 8.94515625 2.8515625 9.8828125 C2.90054687 10.58148438 2.94953125 11.28015625 3 12 C3.9590625 12.1546875 3.9590625 12.1546875 4.9375 12.3125 C5.618125 12.539375 6.29875 12.76625 7 13 C7.33 13.99 7.66 14.98 8 16 C6.865625 16.4125 5.73125 16.825 4.5625 17.25 C0.92320505 18.55565267 0.92320505 18.55565267 0.125 21.0625 C0.08375 21.701875 0.0425 22.34125 0 23 C-0.33 23.66 -0.66 24.32 -1 25 C-1.23422401 28.66579172 -1.39360638 32.32532072 -1.51757812 35.99609375 C-1.74877177 41.25683976 -2.56698393 45.92932775 -4 51 C7.95890842 47.68055649 7.95890842 47.68055649 17 40 C17.53560547 41.19689453 17.53560547 41.19689453 18.08203125 42.41796875 C19.81088527 45.2858223 19.81088527 45.2858223 23.13671875 45.92578125 C24.30847656 46.05339844 25.48023438 46.18101563 26.6875 46.3125 C27.86699219 46.45300781 29.04648437 46.59351563 30.26171875 46.73828125 C31.16535156 46.82464844 32.06898437 46.91101562 33 47 C33.44085938 48.44246094 33.44085938 48.44246094 33.890625 49.9140625 C34.69572313 53.01138776 34.69572313 53.01138776 36.75 54.375 C40.30768035 55.36324454 43.64718936 55.67640532 47 54 C49.28996786 53.90243245 51.58295953 53.87023484 53.875 53.875 C55.10992187 53.87242188 56.34484375 53.86984375 57.6171875 53.8671875 C61 54 61 54 63.2578125 54.5703125 C65.22799382 55.22077994 65.22799382 55.22077994 68 54 C68.73323796 51.98491642 68.73323796 51.98491642 69 50 C72.99881788 50.61520275 75.80358226 52.60268669 79 55 C79 55.66 79 56.32 79 57 C78.34 57 77.68 57 77 57 C77.185625 57.78375 77.37125 58.5675 77.5625 59.375 C78 62 78 62 77 64 C72.15454405 64.18636369 67.7784719 63.86109519 63 63 C54.86503728 61.34411754 54.86503728 61.34411754 47 63 C46.01 62.505 46.01 62.505 45 62 C43.4804236 61.84876169 41.95527498 61.75118307 40.4296875 61.68359375 C39.08583984 61.62075195 39.08583984 61.62075195 37.71484375 61.55664062 C36.77769531 61.51732422 35.84054688 61.47800781 34.875 61.4375 C33.45767578 61.37272461 33.45767578 61.37272461 32.01171875 61.30664062 C29.67462908 61.20040928 27.3374317 61.09836824 25 61 C25 61.66 25 62.32 25 63 C26.1446875 62.7215625 26.1446875 62.7215625 27.3125 62.4375 C30 62 30 62 33 63 C33 63.66 33 64.32 33 65 C28.98461835 66.60615266 25.98593737 65.23201701 22 64 C21.01 64 20.02 64 19 64 C19 64.99 19 65.98 19 67 C21.01822917 66.90234375 23.03645833 66.8046875 25.0546875 66.70703125 C25.69664063 66.80371094 26.33859375 66.90039062 27 67 C27.99 68.485 27.99 68.485 29 70 C30.7015625 70.185625 30.7015625 70.185625 32.4375 70.375 C36 71 36 71 37.9375 73.5625 C38.288125 74.366875 38.63875 75.17125 39 76 C36.525 76.99 36.525 76.99 34 78 C35.32 78 36.64 78 38 78 C39.32 78 40.64 78 42 78 C42.33 79.32 42.66 80.64 43 82 C43.66 82 44.32 82 45 82 C45.33 83.32 45.66 84.64 46 86 C42.8125 86.25 42.8125 86.25 39 86 C38.278125 85.29875 37.55625 84.5975 36.8125 83.875 C33.31692928 81.54461952 32.29281869 81.97706789 28.25 82.6875 C26.16631464 83.12332033 24.08297293 83.56078727 22 84 C19.00314249 84.39986161 16.00888746 84.69911125 13 85 C15.25740623 82.66475218 17.2805761 80.81294927 20 79 C20.25030977 76.41619823 20.25030977 76.41619823 20 74 C17.69 73.67 15.38 73.34 13 73 C13 74.32 13 75.64 13 77 C12.01 77 11.02 77 10 77 C10.33 78.65 10.66 80.3 11 82 C9.515 82.495 9.515 82.495 8 83 C7.34 82.67 6.68 82.34 6 82 C6 81.34 6 80.68 6 80 C5.34 79.67 4.68 79.34 4 79 C4.66 78.54625 5.32 78.0925 6 77.625 C6.66 77.08875 7.32 76.5525 8 76 C8 75.34 8 74.68 8 74 C6.35 74 4.7 74 3 74 C3 74.66 3 75.32 3 76 C1.03125 77.5078125 1.03125 77.5078125 -1.5 79.125 C-2.3353125 79.66382812 -3.170625 80.20265625 -4.03125 80.7578125 C-4.6809375 81.16773437 -5.330625 81.57765625 -6 82 C-5.01 82.66 -4.02 83.32 -3 84 C-3 85.32 -3 86.64 -3 88 C-4.65 87.67 -6.3 87.34 -8 87 C-8 86.01 -8 85.02 -8 84 C-10.64 84.33 -13.28 84.66 -16 85 C-16.05112911 78.38382302 -16.0859119 71.76769787 -16.10986328 65.15136719 C-16.1198589 62.90525407 -16.13345988 60.65915375 -16.15087891 58.41308594 C-16.17541257 55.16598328 -16.1865478 51.91905414 -16.1953125 48.671875 C-16.20563507 47.68386902 -16.21595764 46.69586304 -16.22659302 45.67791748 C-16.22932037 28.34398055 -16.22932037 28.34398055 -12 22 C-11.34 22 -10.68 22 -10 22 C-10.11406002 19.13863704 -10.11406002 19.13863704 -11 16 C-12.64295195 14.63755204 -14.30824337 13.30135125 -16 12 C-16 10.68 -16 9.36 -16 8 C-13.36 7.34 -10.72 6.68 -8 6 C-7.67 4.35 -7.34 2.7 -7 1 C-4.03 1.495 -4.03 1.495 -1 2 C-0.67 1.34 -0.34 0.68 0 0 Z " fill="#7C1416" transform="translate(16,2)"/>
<path d="M0 0 C0.495 1.98 0.495 1.98 1 4 C4.465 3.505 4.465 3.505 8 3 C7.77183594 3.86882813 7.54367188 4.73765625 7.30859375 5.6328125 C6.87740234 7.36144531 6.87740234 7.36144531 6.4375 9.125 C6.14746094 10.26195312 5.85742188 11.39890625 5.55859375 12.5703125 C4.97950806 16.12581766 5.20392173 18.51241901 6 22 C6.26490234 23.23363281 6.26490234 23.23363281 6.53515625 24.4921875 C6.79619141 25.67167969 6.79619141 25.67167969 7.0625 26.875 C7.8257617 30.61331094 8.0551416 34.01542127 7.9453125 37.84375 C8.0574094 42.26357077 8.78993029 46.7498169 10 51 C10.66 51.33 11.32 51.66 12 52 C12 58.27 12 64.54 12 71 C10.35 71.66 8.7 72.32 7 73 C7 72.34 7 71.68 7 71 C6.05125 71.639375 5.1025 72.27875 4.125 72.9375 C0.17143124 75.2578972 -3.33998291 75.4758344 -7.86328125 75.53125 C-10.16971474 75.7759414 -10.16971474 75.7759414 -11.2421875 77.8984375 C-11.61730469 78.93871094 -11.61730469 78.93871094 -12 80 C-13.08920363 82.84868642 -13.61531956 83.78166786 -16.3125 85.3125 C-19.2923726 86.07479299 -21.0709637 85.83686751 -24 85 C-23.505 83.02 -23.505 83.02 -23 81 C-25.97 81.99 -25.97 81.99 -29 83 C-28.85969405 79.98342209 -28.70648535 77.76158727 -26.59765625 75.48828125 C-25.11095765 74.26743934 -23.55865102 73.12753478 -22 72 C-24.97 71.01 -24.97 71.01 -28 70 C-26.68 68.35 -25.36 66.7 -24 65 C-24.99 64.505 -24.99 64.505 -26 64 C-22.7 64.33 -19.4 64.66 -16 65 C-16 65.66 -16 66.32 -16 67 C-15.01 67.495 -15.01 67.495 -14 68 C-14 67.01 -14 66.02 -14 65 C-11.69 65 -9.38 65 -7 65 C-7 62.69 -7 60.38 -7 58 C-6.34 58 -5.68 58 -5 58 C-7.7819368 54.72713318 -11.27954067 53.03572303 -15 51 C-15.103125 51.61875 -15.20625 52.2375 -15.3125 52.875 C-16 55 -16 55 -19 57 C-20.34482402 56.71656175 -21.6766277 56.37091057 -23 56 C-25.37353686 55.90681264 -27.74963971 55.870041 -30.125 55.875 C-31.36507812 55.87242188 -32.60515625 55.86984375 -33.8828125 55.8671875 C-36.90723573 55.78331189 -36.90723573 55.78331189 -39 57 C-43.59219867 57.40819544 -46.40389285 56.97963164 -50 54 C-50.63671875 51.38671875 -50.63671875 51.38671875 -51 49 C-51.90363281 48.89042969 -52.80726562 48.78085937 -53.73828125 48.66796875 C-54.91777344 48.50941406 -56.09726562 48.35085937 -57.3125 48.1875 C-58.48425781 48.03667969 -59.65601563 47.88585938 -60.86328125 47.73046875 C-65.32459677 46.69153226 -65.32459677 46.69153226 -67 44 C-67.421875 41.546875 -67.421875 41.546875 -67 39 C-65.390625 37.015625 -65.390625 37.015625 -63.25 35.25 C-62.55390625 34.65703125 -61.8578125 34.0640625 -61.140625 33.453125 C-58.91014119 31.93900095 -57.67753948 31.21816988 -55 31 C-51.87511003 31.88312108 -48.90953652 33.03437612 -45.875 34.1875 C-42.93052323 35.01963474 -41.77461929 35.14811833 -39 34 C-38.01 33.34 -37.02 32.68 -36 32 C-30.12706773 31.01327148 -25.25049423 31.25813265 -20.3125 34.75 C-18.36328125 36.296875 -18.36328125 36.296875 -17 38 C-17 39.32 -17 40.64 -17 42 C-13.04 42.33 -9.08 42.66 -5 43 C-5.20625 41.88625 -5.4125 40.7725 -5.625 39.625 C-5.74875 38.42875 -5.8725 37.2325 -6 36 C-5.34 35.34 -4.68 34.68 -4 34 C-4.19471111 32.05000871 -4.19471111 32.05000871 -5 30 C-5.20625 29.319375 -5.4125 28.63875 -5.625 27.9375 C-7.00334629 25.63842059 -7.00334629 25.63842059 -10.5 24.5 C-14 23 -14 23 -15.4375 20.8125 C-15.623125 20.214375 -15.80875 19.61625 -16 19 C-13.69 18.67 -11.38 18.34 -9 18 C-8.67 15.03 -8.34 12.06 -8 9 C-6.8553125 8.7215625 -6.8553125 8.7215625 -5.6875 8.4375 C-1.81384272 6.36554378 -1.43454737 4.07713462 0 0 Z " fill="#971A1C" transform="translate(100,1)"/>
<path d="M0 0 C3.27081471 -0.02902429 6.5415963 -0.04680684 9.8125 -0.0625 C10.74126953 -0.07087891 11.67003906 -0.07925781 12.62695312 -0.08789062 C13.51962891 -0.09111328 14.41230469 -0.09433594 15.33203125 -0.09765625 C16.56530151 -0.10551147 16.56530151 -0.10551147 17.82348633 -0.11352539 C20 0 20 0 23 1 C23.33 0.67 23.66 0.34 24 0 C26.78724321 0.03850602 29.53253495 0.14574778 32.3125 0.3125 C33.08529297 0.34794922 33.85808594 0.38339844 34.65429688 0.41992188 C41.68895668 0.82518603 41.68895668 0.82518603 45 3 C45 3.99 45 4.98 45 6 C44.01 5.67 43.02 5.34 42 5 C42.33 4.34 42.66 3.68 43 3 C40.36 3 37.72 3 35 3 C34.5359375 3.9590625 34.5359375 3.9590625 34.0625 4.9375 C33 7 33 7 32 8 C33.98 8.66 35.96 9.32 38 10 C36.37660195 11.70884005 34.70680947 13.37446717 33 15 C32.34 15 31.68 15 31 15 C31.495 16.98 31.495 16.98 32 19 C32.99 18.67 33.98 18.34 35 18 C35.66 18.33 36.32 18.66 37 19 C36.1875 20.9375 36.1875 20.9375 35 23 C33.515 23.495 33.515 23.495 32 24 C32 25.65 32 27.3 32 29 C19.0980905 32.7327483 19.0980905 32.7327483 15.1875 30.6875 C14.465625 30.130625 13.74375 29.57375 13 29 C13 28.01 13 27.02 13 26 C12.16855469 26.2165625 11.33710937 26.433125 10.48046875 26.65625 C9.39378906 26.9346875 8.30710938 27.213125 7.1875 27.5 C5.56908203 27.91765625 5.56908203 27.91765625 3.91796875 28.34375 C1 29 1 29 -2 29 C-2 29.66 -2 30.32 -2 31 C-5.875 30.125 -5.875 30.125 -7 29 C-9.98385705 29.17768475 -9.98385705 29.17768475 -13 30 C-15.2773501 32.81509993 -15.2773501 32.81509993 -15 36 C-16.32 36.66 -17.64 37.32 -19 38 C-21.40814077 34.48812804 -22.36629408 32.27343092 -22 28 C-23.5159375 28.4640625 -23.5159375 28.4640625 -25.0625 28.9375 C-28.6731369 29.97647919 -32.26874647 30.54311181 -36 31 C-36.66 29.68 -37.32 28.36 -38 27 C-38.99 27 -39.98 27 -41 27 C-41 26.01 -41 25.02 -41 24 C-38.29120665 22.64560332 -35.99066732 22.93498549 -33 23 C-32.67 23.99 -32.34 24.98 -32 26 C-29.98491642 26.73323796 -29.98491642 26.73323796 -28 27 C-28 25.68 -28 24.36 -28 23 C-29.65 22.67 -31.3 22.34 -33 22 C-31.33784732 20.66104368 -29.67036393 19.32869858 -28 18 C-26.9171875 17.13375 -26.9171875 17.13375 -25.8125 16.25 C-24 15 -24 15 -22 15 C-22 14.34 -22 13.68 -22 13 C-20.35 12.67 -18.7 12.34 -17 12 C-17 13.32 -17 14.64 -17 16 C-17.99 16.66 -18.98 17.32 -20 18 C-19.67 18.99 -19.34 19.98 -19 21 C-17.68 21 -16.36 21 -15 21 C-15 19.35 -15 17.7 -15 16 C-14.01 16 -13.02 16 -12 16 C-12 14.68 -12 13.36 -12 12 C-9.69 12.33 -7.38 12.66 -5 13 C-4.505 15.475 -4.505 15.475 -4 18 C-6.31 19.65 -8.62 21.3 -11 23 C-8.24960167 22.69073032 -5.49971822 22.3777116 -2.75 22.0625 C-1.97269531 21.97548828 -1.19539063 21.88847656 -0.39453125 21.79882812 C0.35957031 21.71181641 1.11367188 21.62480469 1.890625 21.53515625 C2.92751465 21.41732788 2.92751465 21.41732788 3.98535156 21.29711914 C6.0392981 21.047207 6.0392981 21.047207 8.10449219 20.34545898 C9.04276855 20.17445679 9.04276855 20.17445679 10 20 C11.67083819 21.32810215 13.33729713 22.66172696 15 24 C17.7104607 24.33592508 17.7104607 24.33592508 20 24 C20 23.01 20 22.02 20 21 C19.34 21 18.68 21 18 21 C17.505 19.02 17.505 19.02 17 17 C14.69 17.66 12.38 18.32 10 19 C9.34 18.01 8.68 17.02 8 16 C9.65 15.67 11.3 15.34 13 15 C12.34 13.35 11.68 11.7 11 10 C9.39125 10.0928125 9.39125 10.0928125 7.75 10.1875 C3.66906136 9.98345307 3.02012503 9.4355847 0 7 C-3.15118325 6.27954633 -3.15118325 6.27954633 -6 6 C-6 5.01 -6 4.02 -6 3 C-1.98461835 1.39384734 1.01406263 2.76798299 5 4 C5.99 4 6.98 4 8 4 C8 3.34 8 2.68 8 2 C5.36 2 2.72 2 0 2 C0 1.34 0 0.68 0 0 Z " fill="#861618" transform="translate(41,63)"/>
<path d="M0 0 C2.3125 0.125 2.3125 0.125 5 1 C6.03291676 2.98320018 7.0337499 4.98347806 8 7 C10.07690578 7.96044102 10.07690578 7.96044102 12 8 C11.34 8 10.68 8 10 8 C10 8.66 10 9.32 10 10 C11.32 9.67 12.64 9.34 14 9 C15.32 10.65 16.64 12.3 18 14 C18.598125 13.79375 19.19625 13.5875 19.8125 13.375 C22 13 22 13 25 15 C25 18.3 25 21.6 25 25 C-11.96 25 -48.92 25 -87 25 C-87 24.01 -87 23.02 -87 22 C-86.02160156 22.03480469 -86.02160156 22.03480469 -85.0234375 22.0703125 C-79.91301097 22.17583753 -75.79574967 22.01926302 -71 20 C-71 19.34 -71 18.68 -71 18 C-67.10744687 16.16821029 -64.25444959 16 -60 16 C-58.4840625 15.443125 -58.4840625 15.443125 -56.9375 14.875 C-53.45292878 13.83704262 -52.14932372 14.33271097 -49 16 C-49 16.66 -49 17.32 -49 18 C-46.05908413 17.81584568 -46.05908413 17.81584568 -43 17 C-41.56362302 15.04836882 -41.56362302 15.04836882 -41 13 C-41.66 13 -42.32 13 -43 13 C-41.25 9.125 -41.25 9.125 -39 8 C-35.125 10.75 -35.125 10.75 -34 13 C-34.99 13 -35.98 13 -37 13 C-34.525 13.99 -34.525 13.99 -32 15 C-32 15.33 -32 15.66 -32 16 C-30.25285767 16.25002209 -28.50200859 16.47423194 -26.75 16.6875 C-25.28820313 16.87892578 -25.28820313 16.87892578 -23.796875 17.07421875 C-20.48316808 16.98628519 -19.45763883 16.11509182 -17 14 C-16.34 14 -15.68 14 -15 14 C-15.495 12.02 -15.495 12.02 -16 10 C-15.01 9.67 -14.02 9.34 -13 9 C-10.3125 10.4375 -10.3125 10.4375 -8 12 C-8 11.34 -8 10.68 -8 10 C-5.36 8.68 -2.72 7.36 0 6 C-0.495 4.02 -0.495 4.02 -1 2 C-0.67 1.34 -0.34 0.68 0 0 Z " fill="#881618" transform="translate(87,87)"/>
<path d="M0 0 C0.33 1.32 0.66 2.64 1 4 C4.465 3.505 4.465 3.505 8 3 C7.77183594 3.86882813 7.54367188 4.73765625 7.30859375 5.6328125 C6.87740234 7.36144531 6.87740234 7.36144531 6.4375 9.125 C6.14746094 10.26195312 5.85742188 11.39890625 5.55859375 12.5703125 C4.97950806 16.12581766 5.20392173 18.51241901 6 22 C6.17660156 22.82242187 6.35320312 23.64484375 6.53515625 24.4921875 C6.70917969 25.27851563 6.88320312 26.06484375 7.0625 26.875 C7.82013859 30.59130025 8.06280086 33.96742402 7.9375 37.7734375 C8.0720364 42.5662967 9.12195927 47.29621035 10 52 C4.3984375 52.28125 4.3984375 52.28125 0.8125 49.75 C-3.83287054 45.20785992 -5.62804734 42.69514781 -6 36 C-5.34 35.34 -4.68 34.68 -4 34 C-4.19471111 32.05000871 -4.19471111 32.05000871 -5 30 C-5.20625 29.319375 -5.4125 28.63875 -5.625 27.9375 C-7.00334629 25.63842059 -7.00334629 25.63842059 -10.5 24.5 C-14 23 -14 23 -15.4375 20.8125 C-15.623125 20.214375 -15.80875 19.61625 -16 19 C-12.535 18.505 -12.535 18.505 -9 18 C-8.67 15.03 -8.34 12.06 -8 9 C-7.236875 8.814375 -6.47375 8.62875 -5.6875 8.4375 C-1.81384272 6.36554378 -1.43454737 4.07713462 0 0 Z " fill="#851618" transform="translate(100,1)"/>
<path d="M0 0 C3.05719261 0.79387773 4.28343345 1.01322698 7.12890625 -0.1875 C8.11890625 -0.8475 9.10890625 -1.5075 10.12890625 -2.1875 C15.8747654 -3.1528786 20.85435095 -2.94748325 25.75390625 0.375 C28.49197876 2.76305087 29.15568089 3.88644902 30.44140625 7.4375 C30.12890625 10.8125 30.12890625 10.8125 28.31640625 13.25 C23.03245826 15.84017058 17.83995847 15.44700158 12.19140625 14.125 C10.12890625 12.8125 10.12890625 12.8125 8.69140625 10.1875 C8.17578125 9.40375 7.66015625 8.62 7.12890625 7.8125 C4.21507896 7.06189151 4.21507896 7.06189151 1.12890625 7.8125 C0.37609375 8.47507812 -0.37671875 9.13765625 -1.15234375 9.8203125 C-4.51031276 12.28089324 -6.37814078 12.32099919 -10.49609375 12.25 C-11.62273438 12.24871094 -12.749375 12.24742188 -13.91015625 12.24609375 C-16.87109375 11.8125 -16.87109375 11.8125 -18.765625 10.46484375 C-19.87109375 8.8125 -19.87109375 8.8125 -19.93359375 5.9375 C-18.46513706 1.61850973 -16.5907607 0.41626687 -12.87109375 -2.1875 C-8.19724774 -3.74544867 -4.53571648 -1.56866645 0 0 Z " fill="#EDDED9" transform="translate(53.87109375,35.1875)"/>
<path d="M0 0 C2.49505962 2.49505962 2.35948376 3.67328888 2.625 7.125 C2.69976563 8.03507813 2.77453125 8.94515625 2.8515625 9.8828125 C2.90054687 10.58148438 2.94953125 11.28015625 3 12 C3.9590625 12.1546875 3.9590625 12.1546875 4.9375 12.3125 C5.618125 12.539375 6.29875 12.76625 7 13 C7.33 13.99 7.66 14.98 8 16 C6.865625 16.4125 5.73125 16.825 4.5625 17.25 C0.92320505 18.55565267 0.92320505 18.55565267 0.125 21.0625 C0.08375 21.701875 0.0425 22.34125 0 23 C-0.33 23.66 -0.66 24.32 -1 25 C-1.23370228 28.7243982 -1.39427067 32.44257635 -1.51757812 36.171875 C-1.71901488 40.79351828 -2.26553576 44.64628409 -4 49 C-6.475 49.495 -6.475 49.495 -9 50 C-9 49.34 -9 48.68 -9 48 C-10.32 47.67 -11.64 47.34 -13 47 C-13 45.35 -13 43.7 -13 42 C-11.02 41.505 -11.02 41.505 -9 41 C-9 40.34 -9 39.68 -9 39 C-9.66 38.67 -10.32 38.34 -11 38 C-10.67 37.01 -10.34 36.02 -10 35 C-7.4375 33.8125 -7.4375 33.8125 -5 33 C-5.33 31.68 -5.66 30.36 -6 29 C-9.05263664 28.01879536 -10.94736336 28.01879536 -14 29 C-13.67 27.02 -13.34 25.04 -13 23 C-12.01 22.67 -11.02 22.34 -10 22 C-10.11406002 19.13863704 -10.11406002 19.13863704 -11 16 C-12.64295195 14.63755204 -14.30824337 13.30135125 -16 12 C-16 10.68 -16 9.36 -16 8 C-13.36 7.34 -10.72 6.68 -8 6 C-7.67 4.35 -7.34 2.7 -7 1 C-4.03 1.495 -4.03 1.495 -1 2 C-0.67 1.34 -0.34 0.68 0 0 Z " fill="#86191A" transform="translate(16,2)"/>
<path d="M0 0 C3.27081471 -0.02902429 6.5415963 -0.04680684 9.8125 -0.0625 C11.2056543 -0.07506836 11.2056543 -0.07506836 12.62695312 -0.08789062 C13.51962891 -0.09111328 14.41230469 -0.09433594 15.33203125 -0.09765625 C16.56530151 -0.10551147 16.56530151 -0.10551147 17.82348633 -0.11352539 C20 0 20 0 23 1 C23.33 0.67 23.66 0.34 24 0 C26.78724321 0.03850602 29.53253495 0.14574778 32.3125 0.3125 C33.08529297 0.34794922 33.85808594 0.38339844 34.65429688 0.41992188 C41.68895668 0.82518603 41.68895668 0.82518603 45 3 C45 3.99 45 4.98 45 6 C44.01 5.67 43.02 5.34 42 5 C42.33 4.34 42.66 3.68 43 3 C40.36 3 37.72 3 35 3 C34.690625 3.639375 34.38125 4.27875 34.0625 4.9375 C33 7 33 7 32 8 C33.98 8.66 35.96 9.32 38 10 C36.37660195 11.70884005 34.70680947 13.37446717 33 15 C32.34 15 31.68 15 31 15 C31.20625 15.598125 31.4125 16.19625 31.625 16.8125 C32 19 32 19 30 22 C29.83300768 25.12521833 29.83300768 25.12521833 30 28 C27.03 28.66 24.06 29.32 21 30 C20.34 29.01 19.68 28.02 19 27 C19.99 26.67 20.98 26.34 22 26 C21.690625 25.071875 21.38125 24.14375 21.0625 23.1875 C20.375 21.125 19.6875 19.0625 19 17 C19.66 16.67 20.32 16.34 21 16 C21.268125 15.236875 21.53625 14.47375 21.8125 13.6875 C23.26641539 10.3970599 25.18434708 9.16588687 28 7 C28.33 6.01 28.66 5.02 29 4 C27.35 4 25.7 4 24 4 C24 4.66 24 5.32 24 6 C20.49461443 7.96301592 16.86648272 8.95902388 13 10 C12.67 9.67 12.34 9.34 12 9 C9.73608432 8.96843145 7.48860139 9.06805369 5.2265625 9.16015625 C3 9 3 9 0 7 C-1.9896995 6.60986284 -3.99019869 6.26797351 -6 6 C-6 5.01 -6 4.02 -6 3 C-1.98461835 1.39384734 1.01406263 2.76798299 5 4 C5.99 4 6.98 4 8 4 C8 3.34 8 2.68 8 2 C5.36 2 2.72 2 0 2 C0 1.34 0 0.68 0 0 Z " fill="#91181A" transform="translate(41,63)"/>
<path d="M0 0 C1 2 1 2 1.5 4.0625 C1.82307949 5.99240783 1.82307949 5.99240783 3 7 C5.07823652 7.1790571 7.16453717 7.26807871 9.25 7.3125 C10.38953125 7.34988281 11.5290625 7.38726562 12.703125 7.42578125 C16.63053219 6.91856871 18.08386253 5.58043093 21 3 C24.125 2.5 24.125 2.5 27 3 C29.04040776 5.04040776 30 6.08325244 30 9 C36.6011933 10.76031821 43.79201557 11.00993184 50 8 C50.99 8 51.98 8 53 8 C53.5878125 9.11375 53.5878125 9.11375 54.1875 10.25 C56.19924025 13.30229555 56.86511235 13.47303205 60.125 14.6875 C62.2578125 15.62109375 62.2578125 15.62109375 64 17 C65.00504825 20.34839761 65.10625079 23.52028652 65 27 C63.35 26.67 61.7 26.34 60 26 C60 26.66 60 27.32 60 28 C58.68 28.33 57.36 28.66 56 29 C56 28.34 56 27.68 56 27 C56.99 27 57.98 27 59 27 C59 24.69 59 22.38 59 20 C59.66 20 60.32 20 61 20 C58.2180632 16.72713318 54.72045933 15.03572303 51 13 C50.896875 13.61875 50.79375 14.2375 50.6875 14.875 C50 17 50 17 47 19 C45.65517598 18.71656175 44.3233723 18.37091057 43 18 C40.62646314 17.90681264 38.25036029 17.870041 35.875 17.875 C34.63492188 17.87242188 33.39484375 17.86984375 32.1171875 17.8671875 C29.09276427 17.78331189 29.09276427 17.78331189 27 19 C22.40780133 19.40819544 19.59610715 18.97963164 16 16 C15.36328125 13.38671875 15.36328125 13.38671875 15 11 C14.09636719 10.89042969 13.19273438 10.78085937 12.26171875 10.66796875 C10.49248047 10.43013672 10.49248047 10.43013672 8.6875 10.1875 C7.51574219 10.03667969 6.34398437 9.88585938 5.13671875 9.73046875 C1.99670058 8.99923164 0.8055484 8.61515373 -1 6 C-1.25 3.375 -1.25 3.375 -1 1 C-0.67 0.67 -0.34 0.34 0 0 Z " fill="#7C1315" transform="translate(34,39)"/>
<path d="M0 0 C5.75 0.875 5.75 0.875 8 2 C9.57062514 2.09572577 11.1452118 2.1307405 12.71875 2.1328125 C14.11673828 2.13474609 14.11673828 2.13474609 15.54296875 2.13671875 C16.51878906 2.13285156 17.49460937 2.12898438 18.5 2.125 C19.96373047 2.13080078 19.96373047 2.13080078 21.45703125 2.13671875 C22.38902344 2.13542969 23.32101563 2.13414063 24.28125 2.1328125 C25.13783203 2.13168457 25.99441406 2.13055664 26.87695312 2.12939453 C29.05491534 2.13586446 29.05491534 2.13586446 31 1 C33.28996786 0.90243245 35.58295953 0.87023484 37.875 0.875 C39.10992187 0.87242188 40.34484375 0.86984375 41.6171875 0.8671875 C44.33503989 0.97389302 46.40938628 1.33742368 49 2 C51.21771064 1.14209817 51.21771064 1.14209817 53 0 C55 2 55 2 55 5 C55.99 5.33 56.98 5.66 58 6 C57.67 6.99 57.34 7.98 57 9 C55.95392578 8.90912109 55.95392578 8.90912109 54.88671875 8.81640625 C44.98533991 8.03058253 35.08414605 7.68388116 25.15698242 7.39282227 C24.01849854 7.35600342 22.88001465 7.31918457 21.70703125 7.28125 C20.6806958 7.25095703 19.65436035 7.22066406 18.59692383 7.18945312 C16 7 16 7 13 6 C10.43365139 5.77281504 7.88321893 5.58391816 5.3125 5.4375 C4.2596582 5.37272461 4.2596582 5.37272461 3.18554688 5.30664062 C1.45724794 5.2008264 -0.2713511 5.09993419 -2 5 C-1.34 3.35 -0.68 1.7 0 0 Z " fill="#1E0403" transform="translate(32,55)"/>
<path d="M0 0 C0.99 0 1.98 0 3 0 C3 0.99 3 1.98 3 3 C3.99 3.33 4.98 3.66 6 4 C6 6.31 6 8.62 6 11 C8.50298434 8.06171403 9.46930939 5.82097239 10 2 C11.76256869 5.02941494 12.18565983 7.01887821 12 10.5 C11.8571282 16.48275652 12.87262559 22.14167942 14 28 C8.3984375 28.28125 8.3984375 28.28125 4.8125 25.75 C0.16712946 21.20785992 -1.62804734 18.69514781 -2 12 C-1.34 11.34 -0.68 10.68 0 10 C-0.27617533 8.05925139 -0.27617533 8.05925139 -1 6 C-1.6875 3.875 -1.6875 3.875 -2 2 C-1.34 1.34 -0.68 0.68 0 0 Z " fill="#781416" transform="translate(96,25)"/>
<path d="M0 0 C1 2 1 2 1.5 4.0625 C1.82307949 5.99240783 1.82307949 5.99240783 3 7 C5.07823652 7.1790571 7.16453717 7.26807871 9.25 7.3125 C10.38953125 7.34988281 11.5290625 7.38726562 12.703125 7.42578125 C16.63053219 6.91856871 18.08386253 5.58043093 21 3 C24.125 2.5 24.125 2.5 27 3 C29.04040776 5.04040776 30 6.08325244 30 9 C32.475 9.495 32.475 9.495 35 10 C33.68 10.33 32.36 10.66 31 11 C30.896875 11.61875 30.79375 12.2375 30.6875 12.875 C30 15 30 15 27 17 C24.51953125 17.1953125 24.51953125 17.1953125 21.8125 17.125 C20.91144531 17.10695313 20.01039062 17.08890625 19.08203125 17.0703125 C18.39496094 17.04710938 17.70789063 17.02390625 17 17 C16.34 15.02 15.68 13.04 15 11 C14.09636719 10.89042969 13.19273438 10.78085937 12.26171875 10.66796875 C10.49248047 10.43013672 10.49248047 10.43013672 8.6875 10.1875 C7.51574219 10.03667969 6.34398437 9.88585938 5.13671875 9.73046875 C1.99670058 8.99923164 0.8055484 8.61515373 -1 6 C-1.25 3.375 -1.25 3.375 -1 1 C-0.67 0.67 -0.34 0.34 0 0 Z " fill="#CB3A23" transform="translate(34,39)"/>
<path d="M0 0 C1.093125 0.33 2.18625 0.66 3.3125 1 C6.84578884 2.13086649 6.84578884 2.13086649 10 2 C9.67 2.66 9.34 3.32 9 4 C10.98 4 12.96 4 15 4 C16 6 16 6 15.3359375 8.08203125 C14 10 14 10 11.9765625 10.57421875 C10.81253906 10.63029297 10.81253906 10.63029297 9.625 10.6875 C6.21379008 10.88434276 6.21379008 10.88434276 2.8984375 11.64453125 C1 12 1 12 -2 10 C-2.99 10 -3.98 10 -5 10 C-4.01 11.485 -4.01 11.485 -3 13 C-4.14453125 14.48828125 -4.14453125 14.48828125 -6 16 C-8.69921875 16.29296875 -8.69921875 16.29296875 -11.6875 16.1875 C-13.17830078 16.14689453 -13.17830078 16.14689453 -14.69921875 16.10546875 C-15.45847656 16.07066406 -16.21773438 16.03585938 -17 16 C-16.67 15.34 -16.34 14.68 -16 14 C-13.67843403 13.59270772 -11.3431213 13.25561323 -9 13 C-9.350625 12.38125 -9.70125 11.7625 -10.0625 11.125 C-10.371875 10.42375 -10.68125 9.7225 -11 9 C-10 7 -10 7 -7.96875 6.2890625 C-6.32421594 5.84670366 -4.67837026 5.40919219 -3.03125 4.9765625 C-0.79410972 4.19017945 -0.79410972 4.19017945 -0.21875 1.8984375 C-0.1465625 1.27195312 -0.074375 0.64546875 0 0 Z " fill="#95191C" transform="translate(86,96)"/>
<path d="M0 0 C0.66 0 1.32 0 2 0 C2.33 0.66 2.66 1.32 3 2 C4.32 1.67 5.64 1.34 7 1 C7.061875 1.61875 7.12375 2.2375 7.1875 2.875 C7.828919 5.27761141 7.828919 5.27761141 10.5625 6.25 C11.366875 6.4975 12.17125 6.745 13 7 C13 8.65 13 10.3 13 12 C12.01 12.33 11.02 12.66 10 13 C10 13.66 10 14.32 10 15 C8.35 15 6.7 15 5 15 C4.7525 15.639375 4.505 16.27875 4.25 16.9375 C3 19 3 19 0.921875 19.62890625 C0.28765625 19.75136719 -0.3465625 19.87382813 -1 20 C-1.02689449 17.04160645 -1.04678741 14.08345573 -1.0625 11.125 C-1.07087891 10.28324219 -1.07925781 9.44148438 -1.08789062 8.57421875 C-1.09111328 7.76855469 -1.09433594 6.96289062 -1.09765625 6.1328125 C-1.10289307 5.38918457 -1.10812988 4.64555664 -1.11352539 3.87939453 C-1 2 -1 2 0 0 Z " fill="#651112" transform="translate(1,67)"/>
<path d="M0 0 C0.8353125 0.19916016 0.8353125 0.19916016 1.6875 0.40234375 C6.7858701 1.58220305 11.79787441 2.43249539 17 3 C17.2475 3.928125 17.495 4.85625 17.75 5.8125 C19.09602918 9.24487442 20.05011247 10.00342978 23 12 C7.25512528 12.55353075 7.25512528 12.55353075 0 9 C0.33 7.68 0.66 6.36 1 5 C-0.32 4.67 -1.64 4.34 -3 4 C-2.01 2.68 -1.02 1.36 0 0 Z " fill="#7C1315" transform="translate(32,46)"/>
<path d="M0 0 C2 1 2 1 2.9375 3.5 C3.288125 4.325 3.63875 5.15 4 6 C4.99 6.33 5.98 6.66 7 7 C7.66 5.02 8.32 3.04 9 1 C9.99 1 10.98 1 12 1 C12.2475 1.61875 12.495 2.2375 12.75 2.875 C14.20628639 5.35068687 15.37812506 5.95125002 18 7 C17.67 9.31 17.34 11.62 17 14 C12.49537986 15.36503641 9.35665479 14.67563646 5 13 C4.67 12.01 4.34 11.02 4 10 C2.35 9.67 0.7 9.34 -1 9 C-1.09765625 2.84765625 -1.09765625 2.84765625 -1 1 C-0.67 0.67 -0.34 0.34 0 0 Z " fill="#8E1A1C" transform="translate(1,54)"/>
<path d="M0 0 C5.82686481 -0.57840202 10.6464814 -0.85004821 15.625 2.5625 C18.36307251 4.95055087 19.02677464 6.07394902 20.3125 9.625 C20 13 20 13 18.1875 15.4375 C13.81665792 17.58006964 9.7955101 17.69900656 5 17 C4.01 16.34 3.02 15.68 2 15 C7.445 14.505 7.445 14.505 13 14 C15.24759378 9.27854301 15.24759378 9.27854301 15 5 C12.03 4.505 12.03 4.505 9 4 C8.67 5.32 8.34 6.64 8 8 C5.36 8.33 2.72 8.66 0 9 C-0.33 7.35 -0.66 5.7 -1 4 C-0.01 3.67 0.98 3.34 2 3 C2 2.34 2 1.68 2 1 C1.34 0.67 0.68 0.34 0 0 Z " fill="#D7B9B0" transform="translate(64,33)"/>
<path d="M0 0 C2 2 2 2 2.125 4.625 C2.08375 5.40875 2.0425 6.1925 2 7 C0.948125 7.28875 -0.10375 7.5775 -1.1875 7.875 C-4.22818711 8.77225193 -7.08712344 9.76423419 -10 11 C-9.01 11.33 -8.02 11.66 -7 12 C-5.8125 14.5625 -5.8125 14.5625 -5 17 C-5.66 17.33 -6.32 17.66 -7 18 C-6.37240135 20.92879371 -5.41377341 23.36095629 -4 26 C-4.99 25.67 -5.98 25.34 -7 25 C-9.14255793 25.38932856 -9.14255793 25.38932856 -11 26 C-11.66 25.01 -12.32 24.02 -13 23 C-12.01 22.67 -11.02 22.34 -10 22 C-10.11406002 19.13863704 -10.11406002 19.13863704 -11 16 C-12.64295195 14.63755204 -14.30824337 13.30135125 -16 12 C-16 10.68 -16 9.36 -16 8 C-13.36 7.34 -10.72 6.68 -8 6 C-7.67 4.35 -7.34 2.7 -7 1 C-4.03 1.495 -4.03 1.495 -1 2 C-0.67 1.34 -0.34 0.68 0 0 Z " fill="#771618" transform="translate(16,2)"/>
<path d="M0 0 C0 0.66 0 1.32 0 2 C1.65 1.34 3.3 0.68 5 0 C5 3.96 5 7.92 5 12 C4.34 12 3.68 12 3 12 C2.34 10.02 1.68 8.04 1 6 C0.01 6 -0.98 6 -2 6 C-2 6.66 -2 7.32 -2 8 C-2.9075 8.144375 -3.815 8.28875 -4.75 8.4375 C-9.34985382 9.23362855 -13.57878059 10.49276611 -18 12 C-18.625 10.1875 -18.625 10.1875 -19 8 C-17 5 -17 5 -14.79296875 4.375 C-13.93316406 4.25125 -13.07335937 4.1275 -12.1875 4 C-7.92293284 3.27385437 -3.95638637 0 0 0 Z " fill="#680F11" transform="translate(107,72)"/>
<path d="M0 0 C3.10489399 0.10991566 6.20857994 0.24053415 9.3125 0.375 C10.63411133 0.42140625 10.63411133 0.42140625 11.98242188 0.46875 C12.82998047 0.50742187 13.67753906 0.54609375 14.55078125 0.5859375 C15.33106689 0.6173584 16.11135254 0.6487793 16.9152832 0.68115234 C19 1 19 1 22 3 C22 3.66 22 4.32 22 5 C7.86981934 8.68916047 7.86981934 8.68916047 3 9 C2.01 8.34 1.02 7.68 0 7 C-1.9896995 6.60986284 -3.99019869 6.26797351 -6 6 C-6 5.01 -6 4.02 -6 3 C-1.98461835 1.39384734 1.01406263 2.76798299 5 4 C5.99 4 6.98 4 8 4 C8 3.34 8 2.68 8 2 C5.36 2 2.72 2 0 2 C0 1.34 0 0.68 0 0 Z " fill="#971A1B" transform="translate(41,63)"/>
<path d="M0 0 C3.99881788 0.61520275 6.80358226 2.60268669 10 5 C10 5.66 10 6.32 10 7 C9.34 7 8.68 7 8 7 C8.185625 7.78375 8.37125 8.5675 8.5625 9.375 C9 12 9 12 8 14 C3.15454405 14.18636369 -1.2215281 13.86109519 -6 13 C-14.13496272 11.34411754 -14.13496272 11.34411754 -22 13 C-22.66 12.67 -23.32 12.34 -24 12 C-26.0374763 11.77141886 -28.08040303 11.58975722 -30.125 11.4375 C-31.76855469 11.31181641 -31.76855469 11.31181641 -33.4453125 11.18359375 C-34.28835937 11.12300781 -35.13140625 11.06242187 -36 11 C-36 10.67 -36 10.34 -36 10 C-7.84846857 9.79361047 -7.84846857 9.79361047 4 11 C4 10.34 4 9.68 4 9 C3.34 8.67 2.68 8.34 2 8 C0.3125 5.0625 0.3125 5.0625 -1 2 C-0.67 1.34 -0.34 0.68 0 0 Z " fill="#711113" transform="translate(85,52)"/>
<path d="M0 0 C1.97986082 0.11347619 3.95891598 0.2410935 5.9375 0.375 C7.03964844 0.44460937 8.14179687 0.51421875 9.27734375 0.5859375 C10.62505859 0.79089844 10.62505859 0.79089844 12 1 C12.33 1.66 12.66 2.32 13 3 C15.52733235 3.65555119 15.52733235 3.65555119 18 4 C18 4.66 18 5.32 18 6 C22.12973628 5.43260132 22.12973628 5.43260132 26 4 C24.982983 7.05105101 24.17353952 7.82646048 22 10 C22 10.66 22 11.32 22 12 C20.25 12.6875 20.25 12.6875 18 13 C15.35827876 11.56592275 14.23275289 10.6788626 13.25 7.8125 C13.12625 6.9153125 13.12625 6.9153125 13 6 C10.36 5.67 7.72 5.34 5 5 C5 5.99 5 6.98 5 8 C1.97606934 6.99202311 1.03551214 6.31308198 -1 4 C-1.33 3.34 -1.66 2.68 -2 2 C-1.34 2 -0.68 2 0 2 C0 1.34 0 0.68 0 0 Z " fill="#680E0F" transform="translate(24,70)"/>
<path d="M0 0 C0.8971875 0.5259375 0.8971875 0.5259375 1.8125 1.0625 C1.52020032 4.27779643 1.06333694 6.62923619 -0.5625 9.4375 C-4.80756964 12.06540025 -9.32377638 11.36438629 -14.1875 11.0625 C-14.5175 9.4125 -14.8475 7.7625 -15.1875 6.0625 C-14.07375 5.753125 -12.96 5.44375 -11.8125 5.125 C-8.3929845 4.23923517 -8.3929845 4.23923517 -6.1875 3.0625 C-5.8575 2.0725 -5.5275 1.0825 -5.1875 0.0625 C-2.1875 -0.9375 -2.1875 -0.9375 0 0 Z " fill="#FAF1EF" transform="translate(78.1875,36.9375)"/>
<path d="M0 0 C2.4375 0.875 2.4375 0.875 5.4375 2.875 C3.8125 9.625 3.8125 9.625 0.4375 11.875 C-2.88490324 11.5508631 -4.17026303 11.26723697 -6.5625 8.875 C-7.08838107 5.54441989 -6.84656594 4.27479651 -4.875 1.5 C-2.5625 -0.125 -2.5625 -0.125 0 0 Z " fill="#F65126" transform="translate(58.5625,43.125)"/>
<path d="M0 0 C1.1446875 0.35707031 2.289375 0.71414062 3.46875 1.08203125 C6.5 2.1875 6.5 2.1875 9.5 4.1875 C6.12294375 3.65024105 2.803314 3.07685377 -0.5 2.1875 C-0.5 3.8375 -0.5 5.4875 -0.5 7.1875 C-7.125 8.3125 -7.125 8.3125 -10.5 7.1875 C-10.8721042 5.86446283 -11.20630173 4.53012065 -11.5 3.1875 C-12.16 2.8575 -12.82 2.5275 -13.5 2.1875 C-8.46822365 -1.80321918 -6.11095698 -1.94752345 0 0 Z " fill="#C5A69C" transform="translate(50.5,33.8125)"/>
<path d="M0 0 C0 2.64 0 5.28 0 8 C-1.65 8.66 -3.3 9.32 -5 10 C-5 9.34 -5 8.68 -5 8 C-6.0725 8.66 -7.145 9.32 -8.25 10 C-11.30980686 11.88295807 -12.1335864 12 -16 12 C-16 11.34 -16 10.68 -16 10 C-14.35 9.67 -12.7 9.34 -11 9 C-10.8453125 7.6078125 -10.8453125 7.6078125 -10.6875 6.1875 C-9.98364106 2.92415402 -9.66979459 1.87874434 -7 0 C-3.98519175 -1.13055309 -3.16829698 -1.05609899 0 0 Z " fill="#861517" transform="translate(112,64)"/>
<path d="M0 0 C0.99 0.66 1.98 1.32 3 2 C3 2.99 3 3.98 3 5 C3.99 5.33 4.98 5.66 6 6 C5.67 6.99 5.34 7.98 5 9 C-1.93 8.505 -1.93 8.505 -9 8 C-7.68 6.68 -6.36 5.36 -5 4 C-10.94 3.67 -16.88 3.34 -23 3 C-21 1 -21 1 -17.8828125 0.76953125 C-16.64273438 0.78371094 -15.40265625 0.79789063 -14.125 0.8125 C-12.89007813 0.81894531 -11.65515625 0.82539062 -10.3828125 0.83203125 C-7 1 -7 1 -4.7421875 1.63671875 C-4.16726562 1.75660156 -3.59234375 1.87648437 -3 2 C-2.01 1.34 -1.02 0.68 0 0 Z " fill="#220404" transform="translate(84,55)"/>
<path d="M0 0 C1.77557157 3.04980529 2.20538744 5.1156844 2.0625 8.625 C1.94660336 13.81716942 2.38618283 18.84832016 3 24 C1.68 24.33 0.36 24.66 -1 25 C-2 22 -3 19 -4 16 C-4.66 15.67 -5.32 15.34 -6 15 C-5.65066406 14.33613281 -5.30132812 13.67226563 -4.94140625 12.98828125 C-4.48636719 12.10527344 -4.03132813 11.22226562 -3.5625 10.3125 C-3.11003906 9.44238281 -2.65757813 8.57226562 -2.19140625 7.67578125 C-1.04008072 5.09001736 -0.43679247 2.78643472 0 0 Z " fill="#77191B" transform="translate(106,27)"/>
<path d="M0 0 C0.66 1.32 1.32 2.64 2 4 C0.68 5.32 -0.64 6.64 -2 8 C-0.68 8.33 0.64 8.66 2 9 C1.375 10.9375 1.375 10.9375 0 13 C-2.875 13.9375 -2.875 13.9375 -6 14 C-8.375 12.5625 -8.375 12.5625 -10 11 C-10.45375 11.495 -10.9075 11.99 -11.375 12.5 C-13 14 -13 14 -15 14 C-15 12.68 -15 11.36 -15 10 C-14.00097656 9.52949219 -13.00195312 9.05898438 -11.97265625 8.57421875 C-10.66901425 7.94584455 -9.36564269 7.31690905 -8.0625 6.6875 C-7.40314453 6.37876953 -6.74378906 6.07003906 -6.06445312 5.75195312 C-4.33723979 4.91049022 -2.6639473 3.96052335 -1 3 C-0.67 2.01 -0.34 1.02 0 0 Z " fill="#8F2020" transform="translate(32,42)"/>
<path d="M0 0 C-0.33 0.99 -0.66 1.98 -1 3 C-7.27 3 -13.54 3 -20 3 C-20 2.01 -20 1.02 -20 0 C-14.22612918 -2.72655011 -5.80751125 -2.90375563 0 0 Z " fill="#160302" transform="translate(79,59)"/>
<path d="M0 0 C1.32 0 2.64 0 4 0 C4 0.66 4 1.32 4 2 C3.01 2.495 3.01 2.495 2 3 C2 4.32 2 5.64 2 7 C3.98 7 5.96 7 8 7 C7.67 7.66 7.34 8.32 7 9 C5.02 9 3.04 9 1 9 C0.67 9.66 0.34 10.32 0 11 C-0.33 10.34 -0.66 9.68 -1 9 C-4.94727588 8.82057837 -7.5980513 8.90649311 -11 11 C-10.34 10.01 -9.68 9.02 -9 8 C-8.61500109 6.34450469 -8.27206865 4.6777567 -8 3 C-5.03 3.495 -5.03 3.495 -2 4 C-1.34 2.68 -0.68 1.36 0 0 Z " fill="#EEDDD8" transform="translate(62,34)"/>
<path d="M0 0 C1.32 0.33 2.64 0.66 4 1 C4.59732819 3.76264289 5 6.16032769 5 9 C6.19496094 9.09087891 6.19496094 9.09087891 7.4140625 9.18359375 C17.93848858 10.01581722 17.93848858 10.01581722 23 11 C23 11.33 23 11.66 23 12 C7.25512528 12.55353075 7.25512528 12.55353075 0 9 C0.33 7.68 0.66 6.36 1 5 C-0.32 4.67 -1.64 4.34 -3 4 C-2.01 2.68 -1.02 1.36 0 0 Z " fill="#600F11" transform="translate(32,46)"/>
<path d="M0 0 C0 0.33 0 0.66 0 1 C-1.98 1 -3.96 1 -6 1 C-6.433125 1.86625 -6.433125 1.86625 -6.875 2.75 C-7.91666667 4.83333333 -8.95833333 6.91666667 -10 9 C-10.99 8.67 -11.98 8.34 -13 8 C-12.34 8 -11.68 8 -11 8 C-11 7.01 -11 6.02 -11 5 C-12.65 5 -14.3 5 -16 5 C-15.67 3.35 -15.34 1.7 -15 0 C-9.14210361 -2.19671115 -5.9589999 -1.88178944 0 0 Z " fill="#891618" transform="translate(96,76)"/>
<path d="M0 0 C0.33 1.32 0.66 2.64 1 4 C4.465 3.505 4.465 3.505 8 3 C7.77183594 3.845625 7.54367188 4.69125 7.30859375 5.5625 C5.64056533 12.1448543 4.56114689 17.32895378 6 24 C4.68 23.67 3.36 23.34 2 23 C2 18.33333333 2 13.66666667 2 9 C2.66 8.67 3.32 8.34 4 8 C4.33 7.01 4.66 6.02 5 5 C3.35 5 1.7 5 0 5 C-0.33 4.01 -0.66 3.02 -1 2 C-0.67 1.34 -0.34 0.68 0 0 Z " fill="#7E1618" transform="translate(100,1)"/>
<path d="M0 0 C1.32 0.66 2.64 1.32 4 2 C3.67 2.99 3.34 3.98 3 5 C-4.13403722 5.11323869 -11.17380766 4.79589338 -18.28491211 4.26782227 C-22.26364152 3.8754533 -22.26364152 3.8754533 -26 5 C-26.66 4.67 -27.32 4.34 -28 4 C-30.0374763 3.77141886 -32.08040303 3.58975722 -34.125 3.4375 C-35.76855469 3.31181641 -35.76855469 3.31181641 -37.4453125 3.18359375 C-38.28835937 3.12300781 -39.13140625 3.06242187 -40 3 C-40 2.67 -40 2.34 -40 2 C-11.84846857 1.79361047 -11.84846857 1.79361047 0 3 C0 2.01 0 1.02 0 0 Z " fill="#550D0E" transform="translate(89,60)"/>
<path d="M0 0 C0.33 0.66 0.66 1.32 1 2 C2.65 2 4.3 2 6 2 C5.625 3.9375 5.625 3.9375 5 6 C4.01 6.495 4.01 6.495 3 7 C3.185625 7.804375 3.37125 8.60875 3.5625 9.4375 C3.706875 10.283125 3.85125 11.12875 4 12 C3 13 3 13 -0.0625 13.0625 C-1.031875 13.041875 -2.00125 13.02125 -3 13 C-2.690625 12.154375 -2.38125 11.30875 -2.0625 10.4375 C-0.98461179 6.9502146 -0.43418696 3.61822465 0 0 Z " fill="#951D1E" transform="translate(99,4)"/>
<path d="M0 0 C1.32 0.33 2.64 0.66 4 1 C5.03159626 4.09478879 4.97482862 5.52631393 4.5625 8.6875 C4.46066406 9.49574219 4.35882812 10.30398437 4.25390625 11.13671875 C4.17011719 11.75160156 4.08632812 12.36648437 4 13 C2.68 13.33 1.36 13.66 0 14 C0 9.38 0 4.76 0 0 Z " fill="#471113" transform="translate(0,73)"/>
<path d="M0 0 C0.66 0.33 1.32 0.66 2 1 C1.34 2.32 0.68 3.64 0 5 C1.57201172 4.96519531 1.57201172 4.96519531 3.17578125 4.9296875 C4.55468037 4.91092697 5.9335872 4.89272707 7.3125 4.875 C8.00279297 4.85824219 8.69308594 4.84148438 9.40429688 4.82421875 C13.17135396 4.78782206 14.78431704 4.85621136 18 7 C7.11 7.495 7.11 7.495 -4 8 C-3.67 6.35 -3.34 4.7 -3 3 C-2.34 3 -1.68 3 -1 3 C-0.67 2.01 -0.34 1.02 0 0 Z " fill="#570E0E" transform="translate(30,55)"/>
<path d="M0 0 C0.66 0 1.32 0 2 0 C1.67 1.65 1.34 3.3 1 5 C0.34 4.67 -0.32 4.34 -1 4 C-3.0374763 3.77141886 -5.08040303 3.58975722 -7.125 3.4375 C-8.76855469 3.31181641 -8.76855469 3.31181641 -10.4453125 3.18359375 C-11.28835937 3.12300781 -12.13140625 3.06242187 -13 3 C-13.29390625 3.62390625 -13.5878125 4.2478125 -13.890625 4.890625 C-15.26685514 7.50740061 -16.41456282 8.56364601 -19 10 C-22.125 10.3125 -22.125 10.3125 -25 10 C-25.66 9.34 -26.32 8.68 -27 8 C-26.30132812 7.90203125 -25.60265625 7.8040625 -24.8828125 7.703125 C-23.51769531 7.47882812 -23.51769531 7.47882812 -22.125 7.25 C-21.22007813 7.11078125 -20.31515625 6.9715625 -19.3828125 6.828125 C-18.20332031 6.41820312 -18.20332031 6.41820312 -17 6 C-16.70996094 5.32839844 -16.41992188 4.65679687 -16.12109375 3.96484375 C-15.75113281 3.31644531 -15.38117188 2.66804688 -15 2 C-11.77734375 1.42578125 -11.77734375 1.42578125 -7.9375 1.3125 C-3.65023596 1.56179268 -3.65023596 1.56179268 0 0 Z " fill="#9D221C" transform="translate(80,48)"/>
<path d="M0 0 C1.32 0 2.64 0 4 0 C4.35687732 5.35315985 4.35687732 5.35315985 3 7.8125 C-0.18068454 9.70103144 -3.33469879 9.69956547 -7 10 C-7.33 9.01 -7.66 8.02 -8 7 C-5.36 7 -2.72 7 0 7 C0 4.69 0 2.38 0 0 Z " fill="#FAF1EE" transform="translate(50,36)"/>
<path d="M0 0 C0.66 0.33 1.32 0.66 2 1 C2.4140625 3.28515625 2.4140625 3.28515625 2.625 6.0625 C2.69976562 6.98160156 2.77453125 7.90070312 2.8515625 8.84765625 C2.90054688 9.55792969 2.94953125 10.26820312 3 11 C1.68 11.33 0.36 11.66 -1 12 C-2.12880057 8.68885166 -3.21302675 5.41021743 -4 2 C-2.68 2 -1.36 2 0 2 C0 1.34 0 0.68 0 0 Z " fill="#531213" transform="translate(106,40)"/>
<path d="M0 0 C1 2 1 2 1.5 4.0625 C1.82307949 5.99240783 1.82307949 5.99240783 3 7 C5.07823652 7.1790571 7.16453717 7.26807871 9.25 7.3125 C10.38953125 7.34988281 11.5290625 7.38726562 12.703125 7.42578125 C16.62966455 6.91868076 18.06995858 5.5594037 21 3 C24.3125 2.75 24.3125 2.75 27 3 C27 3.99 27 4.98 27 6 C26.2575 5.7525 25.515 5.505 24.75 5.25 C23.8425 5.1675 22.935 5.085 22 5 C21.17435547 5.96873047 21.17435547 5.96873047 20.33203125 6.95703125 C17.06738588 9.81701371 14.06498383 9.55266832 9.9375 9.4375 C9.21755859 9.44458984 8.49761719 9.45167969 7.75585938 9.45898438 C4.73551627 9.42252712 2.5490655 9.37795633 0.01953125 7.63671875 C-1.40673217 5.34704683 -1.27791138 3.64015814 -1 1 C-0.67 0.67 -0.34 0.34 0 0 Z " fill="#BA877D" transform="translate(34,39)"/>
<path d="M0 0 C0.99 0.66 1.98 1.32 3 2 C2.67 2.66 2.34 3.32 2 4 C1.01 3.34 0.02 2.68 -1 2 C-1.33 2.99 -1.66 3.98 -2 5 C-4.75039833 4.69073032 -7.50028178 4.3777116 -10.25 4.0625 C-11.02730469 3.97548828 -11.80460937 3.88847656 -12.60546875 3.79882812 C-13.35957031 3.71181641 -14.11367187 3.62480469 -14.890625 3.53515625 C-15.58188477 3.456604 -16.27314453 3.37805176 -16.98535156 3.29711914 C-19.03695313 2.99455017 -20.99782535 2.53587616 -23 2 C-20.05638781 0.5281939 -17.39951798 0.86819227 -14.125 0.875 C-12.89007813 0.87242188 -11.65515625 0.86984375 -10.3828125 0.8671875 C-7 1 -7 1 -4.7421875 1.6328125 C-4.16726562 1.75398438 -3.59234375 1.87515625 -3 2 C-2.01 1.34 -1.02 0.68 0 0 Z " fill="#470B0B" transform="translate(84,55)"/>
<path d="M0 0 C0 0.99 0 1.98 0 3 C-0.886875 2.938125 -1.77375 2.87625 -2.6875 2.8125 C-6.02729638 2.74039016 -6.02729638 2.74039016 -8.5625 4.5625 C-11 6 -11 6 -13.8125 5.6875 C-14.534375 5.460625 -15.25625 5.23375 -16 5 C-12.91588624 0.97724293 -9.86409245 0.19900768 -5.12109375 -0.80078125 C-3 -1 -3 -1 0 0 Z " fill="#691010" transform="translate(77,93)"/>
<path d="M0 0 C0.33 0 0.66 0 1 0 C1 2.31 1 4.62 1 7 C-0.65 7.66 -2.3 8.32 -4 9 C-4 8.34 -4 7.68 -4 7 C-5.65 7.66 -7.3 8.32 -9 9 C-7.49450444 4.78461243 -4.70682435 3.28718949 -1 1 C-0.67 0.67 -0.34 0.34 0 0 Z " fill="#761617" transform="translate(111,65)"/>
<path d="M0 0 C0.66 0 1.32 0 2 0 C4.36503039 2.99106784 5.91553181 5.02861582 6.25 8.875 C6.1675 9.57625 6.085 10.2775 6 11 C5.401875 10.690625 4.80375 10.38125 4.1875 10.0625 C1.91043228 8.89790296 1.91043228 8.89790296 -1 8 C-0.67 5.36 -0.34 2.72 0 0 Z " fill="#A11D21" transform="translate(11,57)"/>
<path d="M0 0 C1.134375 0.020625 2.26875 0.04125 3.4375 0.0625 C3.1075 1.7125 2.7775 3.3625 2.4375 5.0625 C0.4575 5.3925 -1.5225 5.7225 -3.5625 6.0625 C-3.94468767 4.40635343 -4.27645102 2.73792976 -4.5625 1.0625 C-3.5625 0.0625 -3.5625 0.0625 0 0 Z " fill="#412522" transform="translate(67.5625,35.9375)"/>
<path d="M0 0 C2.64 0 5.28 0 8 0 C8 3.3 8 6.6 8 10 C7.34 10 6.68 10 6 10 C5.731875 9.030625 5.46375 8.06125 5.1875 7.0625 C4.795625 6.051875 4.40375 5.04125 4 4 C3.01 3.67 2.02 3.34 1 3 C0.67 2.01 0.34 1.02 0 0 Z " fill="#500E0F" transform="translate(104,74)"/>
<path d="M0 0 C2.97 0.495 2.97 0.495 6 1 C6 2.65 6 4.3 6 6 C3.69 5.67 1.38 5.34 -1 5 C-0.67 3.35 -0.34 1.7 0 0 Z " fill="#3F2421" transform="translate(43,35)"/>
<path d="M0 0 C0.33 0.99 0.66 1.98 1 3 C1.66 3.165 2.32 3.33 3 3.5 C3.66 3.665 4.32 3.83 5 4 C5.33 4.99 5.66 5.98 6 7 C3.36 7.99 0.72 8.98 -2 10 C-1.33333333 6.66666667 -0.66666667 3.33333333 0 0 Z " fill="#7D1718" transform="translate(18,11)"/>
<path d="M0 0 C0.99 0.66 1.98 1.32 3 2 C1.02 4.97 1.02 4.97 -1 8 C-1.66 7.67 -2.32 7.34 -3 7 C-3 6.34 -3 5.68 -3 5 C-3.66 5 -4.32 5 -5 5 C-4.1875 3.0625 -4.1875 3.0625 -3 1 C-2.01 0.67 -1.02 0.34 0 0 Z " fill="#720F11" transform="translate(23,55)"/>
<path d="M0 0 C1.79133978 -0.05391993 3.58313899 -0.09275571 5.375 -0.125 C6.37273437 -0.14820313 7.37046875 -0.17140625 8.3984375 -0.1953125 C11 0 11 0 13 2 C11.35 2 9.7 2 8 2 C8 3.98 8 5.96 8 8 C7.34 7.67 6.68 7.34 6 7 C6.33 5.68 6.66 4.36 7 3 C5.35 3 3.7 3 2 3 C2 2.34 2 1.68 2 1 C1.34 0.67 0.68 0.34 0 0 Z " fill="#B5978D" transform="translate(64,33)"/>
<path d="M0 0 C0.33 0.66 0.66 1.32 1 2 C1.66 2 2.32 2 3 2 C4.625 4 4.625 4 6 6 C4.02 6.99 4.02 6.99 2 8 C1.67 7.01 1.34 6.02 1 5 C0.34 5 -0.32 5 -1 5 C-1.33 5.66 -1.66 6.32 -2 7 C-2 5.02 -2 3.04 -2 1 C-1.34 0.67 -0.68 0.34 0 0 Z " fill="#731518" transform="translate(2,62)"/>
<path d="M0 0 C1.65 0 3.3 0 5 0 C5 2.31 5 4.62 5 7 C3.02 6.34 1.04 5.68 -1 5 C-0.67 3.35 -0.34 1.7 0 0 Z " fill="#9B211F" transform="translate(13,9)"/>
<path d="M0 0 C-0.66 1.32 -1.32 2.64 -2 4 C-2.66 4 -3.32 4 -4 4 C-4.33 4.99 -4.66 5.98 -5 7 C-6.32 6.67 -7.64 6.34 -9 6 C-9 5.01 -9 4.02 -9 3 C-2.25 0 -2.25 0 0 0 Z " fill="#A21E20" transform="translate(73,80)"/>
<path d="M0 0 C1.98 0 3.96 0 6 0 C6 1.65 6 3.3 6 5 C4.35 5.33 2.7 5.66 1 6 C-0.0625 4.125 -0.0625 4.125 -1 2 C-0.67 1.34 -0.34 0.68 0 0 Z " fill="#94191D" transform="translate(104,102)"/>
<path d="M0 0 C0.66 0.99 1.32 1.98 2 3 C5.08365871 3.2502157 5.08365871 3.2502157 8 3 C7.67 3.66 7.34 4.32 7 5 C5.02 5 3.04 5 1 5 C0.67 5.66 0.34 6.32 0 7 C-0.33 6.34 -0.66 5.68 -1 5 C-4.94727588 4.82057837 -7.5980513 4.90649311 -11 7 C-10 5 -10 5 -8 3 C-5.24627091 2.63066355 -2.79634339 2.81663322 0 3 C0 2.01 0 1.02 0 0 Z " fill="#DBB8A8" transform="translate(62,38)"/>
<path d="M0 0 C0.4125 0.474375 0.825 0.94875 1.25 1.4375 C2.89078817 3.15276627 2.89078817 3.15276627 5.125 3.5 C5.74375 3.665 6.3625 3.83 7 4 C7.33 4.99 7.66 5.98 8 7 C2.375 7.25 2.375 7.25 -1 5 C-0.67 3.35 -0.34 1.7 0 0 Z " fill="#96181D" transform="translate(9,62)"/>
<path d="M0 0 C0.66 0.66 1.32 1.32 2 2 C0.7625 2.12375 -0.475 2.2475 -1.75 2.375 C-4.8762197 2.75746305 -7.28879237 3.30549523 -10 5 C-10 3.68 -10 2.36 -10 1 C-6.61401171 -0.04184255 -3.53318313 -0.23042499 0 0 Z " fill="#91191E" transform="translate(49,86)"/>
<path d="M0 0 C1.875 0.1875 1.875 0.1875 4 1 C5.25 3.5625 5.25 3.5625 6 6 C4.02 6.33 2.04 6.66 0 7 C-1.125 2.25 -1.125 2.25 0 0 Z " fill="#720F10" transform="translate(45,50)"/>
<path d="M0 0 C1.65 0 3.3 0 5 0 C5 0.66 5 1.32 5 2 C5.66 2 6.32 2 7 2 C7 2.99 7 3.98 7 5 C5.02 5 3.04 5 1 5 C0.67 3.35 0.34 1.7 0 0 Z " fill="#F1DBD3" transform="translate(63,43)"/>
<path d="M0 0 C0.66 0.33 1.32 0.66 2 1 C2.625 3.5625 2.625 3.5625 3 6 C1.68 6 0.36 6 -1 6 C-1.33 7.32 -1.66 8.64 -2 10 C-3.35439668 7.29120665 -3.06501451 4.99066732 -3 2 C-2.67 2.66 -2.34 3.32 -2 4 C-1.34 2.68 -0.68 1.36 0 0 Z " fill="#580C0D" transform="translate(7,75)"/>
<path d="M0 0 C1.48556344 2.97112689 0.62945767 5.49527627 0.15625 8.7109375 C-0.00407978 11.05976885 0.30600927 12.76494162 1 15 C-0.32 14.67 -1.64 14.34 -3 14 C-3.40652968 8.57960425 -2.03993514 4.92984325 0 0 Z " fill="#6E1214" transform="translate(105,10)"/>
<path d="M0 0 C1.98 0 3.96 0 6 0 C4.515 2.475 4.515 2.475 3 5 C1.35 4.67 -0.3 4.34 -2 4 C-1.34 2.68 -0.68 1.36 0 0 Z " fill="#831415" transform="translate(71,73)"/>
<path d="M0 0 C1.98 0 3.96 0 6 0 C5.34 1.32 4.68 2.64 4 4 C0.37 4 -3.26 4 -7 4 C-7 3.67 -7 3.34 -7 3 C-4.69 2.34 -2.38 1.68 0 1 C0 0.67 0 0.34 0 0 Z " fill="#300706" transform="translate(55,58)"/>
<path d="M0 0 C0.33 0.66 0.66 1.32 1 2 C2.32 1.67 3.64 1.34 5 1 C5 4 5 4 3.5 5.6875 C3.005 6.120625 2.51 6.55375 2 7 C0.62437146 5.71034824 -0.70766393 4.37310707 -2 3 C-2 2.34 -2 1.68 -2 1 C-1.34 0.67 -0.68 0.34 0 0 Z " fill="#8A171A" transform="translate(28,49)"/>
<path d="M0 0 C1.65 0 3.3 0 5 0 C3.68 0.33 2.36 0.66 1 1 C1 2.32 1 3.64 1 5 C2.65 4.34 4.3 3.68 6 3 C4 6 4 6 0.875 6.6875 C-0.07375 6.790625 -1.0225 6.89375 -2 7 C-1.125 2.25 -1.125 2.25 0 0 Z " fill="#6D0E10" transform="translate(90,77)"/>
<path d="M0 0 C0.33 0 0.66 0 1 0 C1 1.65 1 3.3 1 5 C4.3 5 7.6 5 11 5 C11 5.66 11 6.32 11 7 C9.20841511 7.02696365 7.41671527 7.04637917 5.625 7.0625 C4.62726562 7.07410156 3.62953125 7.08570313 2.6015625 7.09765625 C0 7 0 7 -2 6 C-1.34 4.02 -0.68 2.04 0 0 Z " fill="#EBDCD7" transform="translate(39,36)"/>
<path d="M0 0 C2.31 0 4.62 0 7 0 C7.33 0.99 7.66 1.98 8 3 C5.36 3 2.72 3 0 3 C0 2.01 0 1.02 0 0 Z " fill="#781113" transform="translate(104,109)"/>
<path d="M0 0 C1.32 0.33 2.64 0.66 4 1 C4.33 3.31 4.66 5.62 5 8 C2.20127563 5.47211993 0.54226981 3.79588866 0 0 Z " fill="#881519" transform="translate(107,85)"/>
<path d="M0 0 C-3.51187196 2.40814077 -5.72656908 3.36629408 -10 3 C-9.67 2.01 -9.34 1.02 -9 0 C-3.375 -1.125 -3.375 -1.125 0 0 Z " fill="#94181B" transform="translate(35,64)"/>
<path d="M0 0 C4.3177458 0.50797009 8.03302114 1.19682779 12 3 C8.18510326 4.46726798 5.70988378 3.43336419 2 2 C2 3.65 2 5.3 2 7 C1.67 7 1.34 7 1 7 C0.67 4.69 0.34 2.38 0 0 Z " fill="#D3BBB4" transform="translate(48,34)"/>
<path d="M0 0 C0.99 0.33 1.98 0.66 3 1 C2.67 2.32 2.34 3.64 2 5 C0.68 5.33 -0.64 5.66 -2 6 C-1.125 1.125 -1.125 1.125 0 0 Z " fill="#770E11" transform="translate(43,99)"/>
<path d="M0 0 C0 0.99 0 1.98 0 3 C-0.7425 2.7525 -1.485 2.505 -2.25 2.25 C-3.61125 2.12625 -3.61125 2.12625 -5 2 C-7.33454661 3.83358335 -7.33454661 3.83358335 -9 6 C-9.99 5.67 -10.98 5.34 -12 5 C-7.90746174 1.10234452 -5.90669543 -0.70317803 0 0 Z " fill="#E77B52" transform="translate(61,42)"/>
<path d="M0 0 C0.66 0 1.32 0 2 0 C2 0.66 2 1.32 2 2 C3.32 2 4.64 2 6 2 C5.67 3.32 5.34 4.64 5 6 C3.0625 5.25 3.0625 5.25 1 4 C0.25 1.875 0.25 1.875 0 0 Z " fill="#771113" transform="translate(3,56)"/>
<path d="M0 0 C0.33 0 0.66 0 1 0 C1.25 2.8125 1.25 2.8125 1 6 C-1 7.875 -1 7.875 -3 9 C-3.66 8.67 -4.32 8.34 -5 8 C-5 7.34 -5 6.68 -5 6 C-3.35 5.34 -1.7 4.68 0 4 C0 2.68 0 1.36 0 0 Z " fill="#A11D20" transform="translate(111,53)"/>
<path d="M0 0 C3.39914975 1.13304992 4.05254451 2.12518475 6 5 C5.34 5.66 4.68 6.32 4 7 C3.67 6.01 3.34 5.02 3 4 C1.35 4.33 -0.3 4.66 -2 5 C-1.34 3.35 -0.68 1.7 0 0 Z " fill="#922322" transform="translate(84,43)"/>
<path d="M0 0 C2.50357861 0.8345262 4.66785852 1.79371992 7 3 C4.525 4.485 4.525 4.485 2 6 C2 5.34 2 4.68 2 4 C1.34 4 0.68 4 0 4 C0 2.68 0 1.36 0 0 Z " fill="#7C1012" transform="translate(57,71)"/>
<path d="M0 0 C1.875 0.1875 1.875 0.1875 4 1 C5.25 3.5625 5.25 3.5625 6 6 C5.01 6.33 4.02 6.66 3 7 C2.01 4.69 1.02 2.38 0 0 Z " fill="#9F211F" transform="translate(98,59)"/>
<path d="M0 0 C0.66 0.33 1.32 0.66 2 1 C2 1.66 2 2.32 2 3 C4.31 3.33 6.62 3.66 9 4 C9 4.33 9 4.66 9 5 C7.56163249 4.88541307 6.12429034 4.75790884 4.6875 4.625 C3.88699219 4.55539063 3.08648437 4.48578125 2.26171875 4.4140625 C0 4 0 4 -3 2 C-2.01 1.34 -1.02 0.68 0 0 Z " fill="#5C0F11" transform="translate(35,52)"/>
<path d="M0 0 C0.66 0.33 1.32 0.66 2 1 C1.67 2.32 1.34 3.64 1 5 C-0.32 5.33 -1.64 5.66 -3 6 C-3.33 4.68 -3.66 3.36 -4 2 C-2.68 2 -1.36 2 0 2 C0 1.34 0 0.68 0 0 Z " fill="#651314" transform="translate(106,40)"/>
<path d="M0 0 C1.32 0.66 2.64 1.32 4 2 C4 2.66 4 3.32 4 4 C2.35 4.33 0.7 4.66 -1 5 C-1.33 4.01 -1.66 3.02 -2 2 C-1.34 1.34 -0.68 0.68 0 0 Z " fill="#841516" transform="translate(79,88)"/>
<path d="M0 0 C0.66 0 1.32 0 2 0 C1.67 1.65 1.34 3.3 1 5 C-3.455 4.01 -3.455 4.01 -8 3 C-8 2.67 -8 2.34 -8 2 C-6.865625 1.855625 -5.73125 1.71125 -4.5625 1.5625 C-1.19222799 1.38828522 -1.19222799 1.38828522 0 0 Z " fill="#8B332F" transform="translate(80,48)"/>
<path d="M0 0 C2.26609984 4.53219967 1.92735976 6.17772925 1 11 C0.01 10.34 -0.98 9.68 -2 9 C-1.34 6.03 -0.68 3.06 0 0 Z " fill="#6C1113" transform="translate(106,27)"/>
<path d="M0 0 C1.65 0 3.3 0 5 0 C4.67 1.32 4.34 2.64 4 4 C2.68 4 1.36 4 0 4 C0 2.68 0 1.36 0 0 Z " fill="#6B1315" transform="translate(2,31)"/>
<path d="M0 0 C0.99 0 1.98 0 3 0 C3 1.32 3 2.64 3 4 C1.35 4.33 -0.3 4.66 -2 5 C-2 4.01 -2 3.02 -2 2 C-1.34 2 -0.68 2 0 2 C0 1.34 0 0.68 0 0 Z " fill="#851617" transform="translate(81,51)"/>
</svg>
